<svg xmlns="http://www.w3.org/2000/svg" viewBox="0 0 512 512"><defs><clipPath id="circle"><circle cx="256" cy="256" r="256"/></clipPath></defs><g clip-path="url(#circle)"><circle cx="256" cy="256" r="256" fill="#020c45"/><g fill="#ff66c4"><path d="M240.2 7.5c-6.8 1.8-12.5 3.5-12.6 3.7-.2.1-6.1 15.1-13.1 33.3-7 18.1-13.7 35.7-15 39s-6.6 17-11.8 30.5c-80.2 207.5-77.6 200.8-82.5 210.5-7.6 15.3-16.2 24.8-27.5 30.6l-5.8 3 .3 4.7.3 4.7 30.8.3 30.7.2v-5.4c0-5.3 0-5.4-3.5-6-4.6-.9-9.1-4.8-10.6-9.3-1.8-5.4-.5-19.2 2.6-29.3 2.3-7.2 35.5-94.4 73.7-193.5 9.5-24.5 17.9-46.5 25.1-65.3 1.7-4.5 3.4-8.2 3.8-8.2.5 0 22.5 55.4 33.3 84 3.1 8.2 3 8.1 7.9 6.4 7.2-2.6 19.8-5.5 29.6-7 5.2-.8 9.6-1.6 9.7-1.7.7-.7-51.1-128.7-52-128.6-.6 0-6.6 1.6-13.4 3.4"/><path d="M300.5 153.5c-36 4.9-65.4 21.9-80.8 46.6-15.4 24.8-16.2 62.7-1.9 86.4 4.7 7.7 16.7 19.7 26.1 25.9 10.1 6.7 36.4 19.9 55.1 27.5 27.2 11.2 36.2 15.2 47.5 20.8 29.1 14.5 47.3 31.1 53.7 48.8 2.9 8.2 3.6 25.4 1.4 34.7-5.2 22.4-24 40.5-49.1 47.4-7.9 2.2-30.1 3-40.7 1.4-21.2-3-41.5-10.9-55.9-21.9-17.7-13.5-35.9-38.6-47-65.1-2.6-6.3-3.3-7-6.2-6.2-2 .5-2 .9-1.3 24.6.3 13.3.9 28.7 1.3 34.4l.6 10.2 8.1 4.9c14.7 8.9 38.2 18.7 55.1 23 18.4 4.6 26.1 5.5 50.5 5.5 21.2.1 24.4-.1 32.8-2.2 36.9-9.1 63.9-28.9 77.2-56.6 9.4-19.6 11.1-44.6 4.4-64.9-4.5-13.4-13.8-24.9-30.9-37.8-8.6-6.5-35-20-57-29.2-63.3-26.4-71.4-30.7-86.6-45.7-13.9-13.7-18.9-24.9-18.9-42.5 0-24.6 12.3-43.7 35.7-55.1 28.4-14 71.7-10.4 100.4 8.1 15 9.7 31.2 28.2 40.8 46.6 4.7 9 5.4 9.7 7.4 9 2.5-.9 2.5-1.1 1.1-40.3l-.6-17.6-8.7-4c-18.3-8.5-42-15.1-61.3-17.2-12.9-1.3-41-1.1-52.3.5"/><path d="M303.5 180.2c-7.4.7-22.9 5.1-24 6.8-.5.8 33.8 89.7 35.2 91.1.5.5 9.8 4.5 20.8 9 11 4.4 23.8 9.8 28.5 11.9 4.7 2.2 8.6 3.5 8.8 3.1.2-.5-10.5-28.1-23.8-61.4l-24.1-60.5-6.8-.4c-3.8-.2-10.3 0-14.6.4"/></g></g></svg>
